<mxfile host="65bd71144e">
    <diagram id="hhm2lO4PuqB67KRktxI-" name="Page-1">
        <mxGraphModel dx="1005" dy="627" grid="1" gridSize="10" guides="1" tooltips="1" connect="1" arrows="1" fold="1" page="1" pageScale="1" pageWidth="850" pageHeight="1100" math="0" shadow="0">
            <root>
                <mxCell id="0"/>
                <mxCell id="1" parent="0"/>
                <mxCell id="2" value="APP" style="ellipse;whiteSpace=wrap;html=1;" vertex="1" parent="1">
                    <mxGeometry x="270" y="30" width="120" height="80" as="geometry"/>
                </mxCell>
                <mxCell id="3" value="DogList" style="rounded=0;whiteSpace=wrap;html=1;" vertex="1" parent="1">
                    <mxGeometry x="100" y="170" width="120" height="60" as="geometry"/>
                </mxCell>
                <mxCell id="4" value="Filter" style="rounded=0;whiteSpace=wrap;html=1;" vertex="1" parent="1">
                    <mxGeometry x="280" y="170" width="120" height="60" as="geometry"/>
                </mxCell>
                <mxCell id="5" value="DogDetails" style="rounded=0;whiteSpace=wrap;html=1;" vertex="1" parent="1">
                    <mxGeometry x="460" y="170" width="120" height="60" as="geometry"/>
                </mxCell>
                <mxCell id="6" value="state: dogs" style="text;html=1;align=center;verticalAlign=middle;resizable=0;points=[];autosize=1;strokeColor=none;fillColor=none;" vertex="1" parent="1">
                    <mxGeometry x="230" y="30" width="70" height="20" as="geometry"/>
                </mxCell>
                <mxCell id="7" value="state: filter" style="text;html=1;align=center;verticalAlign=middle;resizable=0;points=[];autosize=1;strokeColor=none;fillColor=none;" vertex="1" parent="1">
                    <mxGeometry x="230" y="50" width="70" height="20" as="geometry"/>
                </mxCell>
                <mxCell id="8" value="state: selected dog" style="text;html=1;align=center;verticalAlign=middle;resizable=0;points=[];autosize=1;strokeColor=none;fillColor=none;" vertex="1" parent="1">
                    <mxGeometry x="110" y="80" width="120" height="20" as="geometry"/>
                </mxCell>
                <mxCell id="9" value="updateDog function" style="text;html=1;align=center;verticalAlign=middle;resizable=0;points=[];autosize=1;strokeColor=none;fillColor=none;" vertex="1" parent="1">
                    <mxGeometry x="340" y="80" width="120" height="20" as="geometry"/>
                </mxCell>
            </root>
        </mxGraphModel>
    </diagram>
</mxfile>